<mxfile host="app.diagrams.net" modified="2023-07-03T20:53:53.335Z" agent="Mozilla/5.0 (X11; Linux x86_64) AppleWebKit/537.36 (KHTML, like Gecko) Chrome/113.0.0.0 Safari/537.36" version="21.5.2" etag="XqIqTqU7Nug6Qjw8VgyY" type="github">
  <diagram name="Страница 1" id="AmGNLeBFu3IrVg7y7m-x">
    <mxGraphModel>
      <root>
        <mxCell id="0" />
        <mxCell id="1" parent="0" />
      </root>
    </mxGraphModel>
  </diagram>
</mxfile>
